<!--?xml version="1.0" encoding="utf-8"?-->
<!-- Generator: Adobe Illustrator 18.1.1, SVG Export Plug-In . SVG Version: 6.00 Build 0)  -->

<svg version="1.1" id="_x31_0" xmlns="http://www.w3.org/2000/svg" xmlns:xlink="http://www.w3.org/1999/xlink" x="0px" y="0px" viewBox="0 0 512 512" style="width: 32px; height: 32px; opacity: 1;" xml:space="preserve">
<style type="text/css">
	.st0{fill:#374149;}
</style>
<g>
	<path class="st0" d="M256.633,89.226c2.621,0,3.543,1.598,3.938,2.277l33.033,57.214c0.332,0.574,0.137,1.305-0.434,1.637
		l-38.791,22.396c-10.887,6.282-8.738,22.591,3.402,25.842l125.691,33.662c6.45,1.726,13.075-2.098,14.806-8.547L431.99,98.011
		c0.594-2.223,0.497-4.321,0.11-6.313c-0.008-0.039-0.015-0.074-0.023-0.114c-1.778-8.825-11.911-14.552-20.763-9.442l-34.869,20.13
		l-3.974,2.274c-0.566,0.297-1.266,0.114-1.59-0.442L339.65,50.004c-17.9-31.006-51.054-51.331-86.826-49.937
		c-32.362,1.262-61.098,18.56-77.407,46.819l-35.241,61.035c-3.73,6.458-1.515,14.716,4.942,18.442l53.89,31.119
		c6.458,3.727,14.712,1.516,18.442-4.946l35.244-61.035C253.086,90.823,254.007,89.226,256.633,89.226z" style="fill: rgb(48, 178, 127);"></path>
	<path class="st0" d="M488.662,308.094l-33.428-57.898c-3.73-6.458-11.989-8.673-18.446-4.942l-53.894,31.115
		c-6.458,3.73-8.673,11.985-4.942,18.446l35.241,61.038c0.398,0.68,1.313,2.274,0,4.543c-1.313,2.278-3.153,2.278-3.938,2.278
		h-66.07c-0.66,0-1.195-0.539-1.195-1.199v-44.795c0-2.149-0.566-4.032-1.352-5.77c-0.043-0.102-0.098-0.195-0.145-0.297
		c-3.55-7.391-13.086-10.407-20.298-5.586c-0.035,0.024-0.07,0.055-0.106,0.078c-0.742,0.504-1.508,0.93-2.184,1.606l-91.998,92.045
		c-4.719,4.718-4.719,12.371,0,17.094l92.002,92.022c7.274,7.278,18.654,4.281,22.583-3.91c0.047-0.098,0.102-0.192,0.145-0.29
		c0.786-1.742,1.352-3.621,1.352-5.778v-44.792c0-0.66,0.535-1.195,1.195-1.195h66.07c32.63,0,61.98-16.235,79.25-43.631
		C507.597,377.985,506.566,339.104,488.662,308.094z" style="fill: rgb(48, 178, 127);"></path>
	<path class="st0" d="M194.21,304.723l-33.713-125.695c-1.726-6.446-8.356-10.274-14.802-8.543L20.001,204.143
		c-12.141,3.254-14.286,19.56-3.402,25.846l38.791,22.395c0.574,0.333,0.77,1.063,0.438,1.637l-31.236,54.098
		c-17.899,31.006-18.927,69.883,0.168,100.166c17.27,27.388,46.62,43.623,79.247,43.623h70.485c7.454,0,13.501-6.043,13.501-13.501
		v-62.23c0-7.458-6.047-13.501-13.501-13.501h-70.485c-0.786,0-2.63,0-3.938-2.278c-1.312-2.27-0.394-3.863-0.003-4.543
		l33.041-57.222c0.328-0.57,1.058-0.77,1.633-0.438l38.795,22.399c8.852,5.11,18.99-0.617,20.767-9.446
		c0.008-0.035,0.015-0.07,0.023-0.11C194.707,309.047,194.809,306.946,194.21,304.723z" style="fill: rgb(48, 178, 127);"></path>
</g>
</svg>
